<?xml version="1.0" standalone="no"?>
<!DOCTYPE svg PUBLIC "-//W3C//DTD SVG 20010904//EN"
 "http://www.w3.org/TR/2001/REC-SVG-20010904/DTD/svg10.dtd">
<svg version="1.0" xmlns="http://www.w3.org/2000/svg"
 width="1024.000000pt" height="1024.000000pt" viewBox="0 0 1024.000000 1024.000000"
 preserveAspectRatio="xMidYMid meet">
<metadata>
Created by potrace 1.14, written by Peter Selinger 2001-2017
</metadata>
<g transform="translate(0.000000,1024.000000) scale(0.100000,-0.100000)"
fill="#000000" stroke="none">
<path d="M2064 8540 c-11 -4 -33 -22 -47 -40 l-27 -32 2 -2266 3 -2267 23 -80
c46 -163 131 -303 229 -376 26 -20 82 -55 123 -79 76 -43 312 -181 945 -552
193 -113 580 -340 860 -504 281 -164 566 -331 635 -371 141 -83 240 -119 298
-108 53 10 67 20 86 59 15 31 16 175 16 1626 0 1512 1 1592 18 1585 9 -4 37
-10 62 -12 39 -4 51 -1 78 22 17 14 36 43 42 63 6 23 10 264 10 657 0 581 -2
623 -19 661 -33 72 -140 143 -199 132 -12 -2 -27 18 -55 74 -45 93 -108 160
-202 215 -38 23 -185 108 -325 189 -626 362 -1028 597 -1335 779 -104 63 -390
231 -635 374 l-444 261 -61 -1 c-33 0 -69 -4 -81 -9z m119 -76 c36 -19 819
-476 1272 -744 363 -215 1153 -674 1360 -791 82 -46 166 -101 187 -121 45 -45
92 -134 107 -206 8 -38 11 -684 11 -2342 l0 -2290 -30 0 c-39 0 -103 58 -137
123 -55 109 -53 16 -53 2204 0 2226 3 2110 -62 2243 -50 103 -125 168 -334
289 -98 57 -649 381 -1224 720 -993 585 -1049 620 -1121 691 -106 104 -129
188 -61 224 35 20 46 19 85 0z m216 -881 c35 -21 77 -54 93 -74 37 -46 47
-108 24 -144 -20 -30 -44 -32 -96 -5 l-40 20 0 -55 c0 -55 -8 -65 -38 -46 -10
6 -14 49 -15 175 -1 91 0 166 3 166 3 0 34 -17 69 -37z m288 -181 c6 -4 35
-79 63 -167 28 -88 57 -175 65 -192 17 -38 12 -40 -28 -15 -19 11 -35 34 -45
65 -15 41 -25 53 -69 77 l-51 29 -11 -29 c-9 -28 -12 -29 -35 -18 -15 6 -26
16 -26 22 0 18 108 236 117 236 4 0 13 -4 20 -8z m289 -161 c55 -34 107 -121
82 -137 -6 -4 -15 1 -20 10 -21 38 -71 86 -89 86 -33 0 -22 -43 25 -98 25 -29
53 -65 64 -80 58 -83 19 -155 -63 -117 -47 23 -105 89 -105 120 0 34 10 31 43
-10 37 -47 75 -71 88 -58 14 14 -9 59 -46 93 -16 14 -41 45 -56 69 -63 98 -13
177 77 122z m263 -155 c46 -24 91 -83 91 -118 l0 -32 -53 57 c-53 57 -72 68
-80 45 -7 -21 12 -61 48 -98 109 -115 117 -227 13 -205 -44 10 -128 94 -128
128 0 15 3 27 6 27 3 0 27 -22 53 -50 92 -98 116 -42 25 60 -60 68 -74 94 -74
144 0 55 40 72 99 42z m251 -156 c38 -22 79 -54 91 -71 26 -36 36 -107 20
-138 -15 -28 -62 -28 -107 0 l-34 21 0 -56 c0 -60 -1 -61 -31 -46 -18 10 -19
23 -19 170 0 88 3 160 6 160 3 0 36 -18 74 -40z m343 -196 c72 -47 125 -160
112 -238 -17 -109 -122 -117 -209 -15 -72 85 -88 218 -31 267 34 29 70 25 128
-14z m268 -160 c95 -50 129 -91 129 -152 0 -47 -13 -76 -37 -83 -8 -3 -1 -29
22 -81 18 -43 31 -78 28 -78 -3 0 -17 7 -33 16 -19 12 -36 38 -55 83 -26 65
-50 101 -67 101 -4 0 -8 -25 -8 -56 0 -41 -3 -54 -12 -50 -7 3 -21 9 -30 12
-16 6 -18 23 -18 165 0 88 3 159 6 159 3 0 37 -16 75 -36z m319 -187 c98 -54
115 -68 118 -90 4 -32 -7 -34 -50 -7 -18 11 -38 20 -44 20 -6 0 -11 -41 -11
-112 -1 -62 -2 -119 -2 -126 -1 -9 -7 -8 -26 4 -25 16 -25 19 -25 144 l0 128
-45 26 c-34 20 -45 33 -45 51 0 14 3 25 8 25 4 0 59 -29 122 -63z m-950 -147
c6 -11 29 -79 51 -151 22 -73 48 -147 57 -165 17 -37 45 -44 78 -19 26 20 62
19 68 -2 3 -10 10 -61 16 -113 13 -114 25 -164 44 -179 8 -7 33 -15 57 -19 67
-11 64 -34 -25 -198 -42 -76 -76 -146 -76 -156 0 -73 53 -63 229 43 34 22 69
39 77 39 19 0 32 -28 40 -89 8 -64 35 -88 107 -97 71 -10 97 -37 97 -104 0
-61 21 -85 115 -132 55 -28 74 -43 75 -59 0 -4 -36 -50 -80 -103 -44 -54 -80
-106 -80 -117 0 -11 7 -43 16 -70 10 -31 13 -54 7 -60 -5 -5 -69 -1 -163 11
-85 11 -176 22 -201 25 -68 8 -78 -8 -49 -85 13 -34 20 -63 17 -67 -3 -3 -111
57 -239 134 l-233 140 -3 -136 c-1 -74 -6 -139 -11 -144 -5 -5 -18 -4 -30 2
-20 11 -21 19 -21 166 l0 154 -57 34 c-32 18 -135 76 -230 128 -95 52 -172 99
-173 105 0 6 7 17 15 24 34 28 16 57 -176 282 -105 122 -201 233 -212 245 -27
30 -26 72 3 111 l24 32 -47 176 c-26 96 -45 179 -42 185 10 15 23 11 80 -25
86 -56 132 -76 169 -76 40 0 44 5 54 61 8 49 32 70 56 49 9 -7 76 -102 147
-211 94 -142 137 -199 150 -199 11 0 19 6 19 13 0 7 -18 109 -40 226 -40 214
-46 266 -32 275 11 6 43 -22 81 -72 51 -66 73 -58 136 48 27 47 60 102 72 123
25 41 47 47 63 17z m-974 -1542 c129 -78 123 -240 -6 -173 l-30 16 0 -46 c0
-43 -1 -45 -20 -35 -18 10 -20 21 -20 140 0 95 3 130 12 130 7 0 35 -14 64
-32z m321 -190 c14 -17 112 -318 104 -318 -18 1 -37 23 -51 62 -14 34 -27 49
-66 70 l-49 27 -13 -24 c-12 -24 -42 -25 -42 -1 0 23 83 196 95 196 7 0 17 -6
22 -12z m341 -193 c28 -31 42 -65 26 -65 -3 0 -20 16 -38 35 -70 74 -78 21
-10 -63 25 -31 50 -68 56 -81 11 -31 3 -67 -18 -75 -35 -14 -134 61 -134 101
0 10 13 4 40 -21 81 -73 95 -31 21 61 -54 68 -67 103 -50 134 16 30 65 18 107
-26z m315 -175 c31 -37 42 -85 28 -123 -12 -31 -41 -35 -81 -12 -37 21 -40 19
-40 -25 0 -40 -10 -51 -26 -27 -5 6 -8 69 -6 139 l3 128 48 -25 c27 -13 60
-38 74 -55z m303 -175 c68 -52 100 -189 54 -235 -24 -24 -41 -25 -78 -6 -102
53 -150 218 -78 269 18 12 67 -1 102 -28z m292 -166 c55 -31 92 -78 92 -117 0
-31 -17 -62 -35 -62 -19 0 -19 3 10 -65 14 -32 24 -59 22 -61 -10 -10 -42 29
-70 86 -40 81 -57 88 -57 25 0 -33 -4 -45 -12 -43 -15 5 -25 268 -11 268 4 0
32 -14 61 -31z m-644 -160 c94 -55 188 -117 208 -136 41 -40 81 -122 76 -157
-3 -20 -26 -8 -278 139 -267 156 -275 161 -273 190 3 35 35 65 70 65 14 0 102
-45 197 -101z m960 -25 c62 -33 86 -51 86 -65 0 -23 -8 -24 -34 -4 -11 8 -23
15 -28 15 -4 0 -8 -48 -8 -106 0 -95 -2 -105 -17 -102 -16 3 -18 18 -21 118
l-3 115 -37 20 c-34 18 -57 55 -34 55 5 0 49 -21 96 -46z m-912 -181 c199
-115 238 -142 238 -160 0 -31 -34 -63 -66 -63 -29 0 -343 182 -400 232 -36 32
-76 100 -88 151 l-7 29 43 -26 c24 -14 150 -88 280 -163z"/>
<path d="M2380 7481 c0 -46 2 -50 35 -65 42 -20 55 -15 55 23 0 30 -13 50 -50
75 -36 24 -40 21 -40 -33z"/>
<path d="M2655 7273 c-8 -20 -14 -37 -13 -38 2 -1 18 -10 37 -20 29 -15 33
-15 28 -2 -3 9 -11 34 -17 56 -6 23 -13 41 -15 41 -3 0 -12 -16 -20 -37z"/>
<path d="M3460 6840 c0 -49 1 -52 35 -66 43 -18 55 -12 55 25 0 28 -26 59 -67
80 -22 11 -23 10 -23 -39z"/>
<path d="M3740 6664 c-22 -66 13 -160 70 -189 35 -18 54 -12 69 21 15 34 14
68 -5 112 -22 53 -62 92 -95 92 -23 0 -30 -6 -39 -36z"/>
<path d="M4080 6482 c0 -47 1 -50 40 -67 49 -22 65 -12 55 34 -6 28 -63 81
-87 81 -5 0 -8 -22 -8 -48z"/>
<path d="M2460 4625 c0 -40 3 -46 31 -61 28 -14 33 -14 47 -1 13 13 13 20 2
47 -11 26 -53 60 -75 60 -3 0 -5 -20 -5 -45z"/>
<path d="M2787 4426 c-20 -43 -17 -50 25 -72 28 -15 30 -15 24 4 -4 11 -12 38
-19 62 l-12 42 -18 -36z"/>
<path d="M3380 4110 c0 -31 5 -43 25 -56 31 -20 59 -15 63 12 4 27 -43 84 -69
84 -16 0 -19 -7 -19 -40z"/>
<path d="M3689 3929 c-22 -41 12 -135 57 -160 69 -37 89 82 25 150 -34 36 -66
40 -82 10z"/>
<path d="M4030 3729 c0 -37 3 -41 36 -55 30 -13 38 -13 45 -2 18 27 1 61 -41
83 -40 21 -40 20 -40 -26z"/>
<path d="M3860 8290 c-94 -21 -217 -69 -295 -116 -55 -33 -57 -35 -25 -29 93
16 197 17 263 1 137 -32 191 -61 902 -481 204 -120 429 -253 500 -295 1823
-1072 2462 -1454 2568 -1534 100 -75 252 -228 338 -339 201 -260 327 -539 396
-877 26 -126 25 -502 -1 -619 -51 -234 -143 -426 -292 -609 l-27 -32 49 21
c77 34 173 102 248 176 166 163 275 404 307 682 11 90 7 357 -5 426 -4 17 -9
46 -12 65 -12 72 -16 87 -35 162 -65 259 -211 546 -392 770 -90 112 -278 297
-367 360 -75 53 -999 606 -1790 1071 -47 28 -314 186 -595 352 -1200 711
-1382 815 -1456 838 -78 25 -189 28 -279 7z"/>
<path d="M5730 6310 c-11 -11 -20 -30 -20 -42 0 -13 -1 -270 -3 -573 -2 -546
-2 -551 21 -622 27 -87 105 -207 168 -258 62 -51 649 -383 690 -391 43 -8 102
21 131 64 40 60 43 109 43 671 l0 538 -23 44 c-27 51 -105 109 -147 109 -62 0
-60 19 -60 -588 0 -304 -3 -552 -7 -552 -20 0 -460 260 -500 295 -26 22 -56
62 -69 90 l-24 50 0 523 c0 493 -1 525 -19 560 -22 42 -43 63 -88 86 -42 21
-69 20 -93 -4z"/>
<path d="M7079 5511 l-24 -19 0 -589 0 -588 23 -67 c13 -37 40 -93 61 -125 73
-112 132 -155 521 -376 228 -129 252 -137 296 -89 23 24 26 34 22 82 -7 96 -5
94 -358 296 -129 75 -242 146 -266 170 -75 74 -74 68 -74 666 0 372 -3 536
-11 551 -17 32 -60 77 -91 93 -37 19 -71 18 -99 -5z"/>
<path d="M7620 5205 c-15 -19 -15 -575 1 -644 24 -109 101 -222 196 -288 112
-78 336 -197 372 -197 59 0 93 64 72 135 -19 62 -61 101 -187 170 -64 35 -138
83 -165 107 -72 65 -79 94 -79 349 0 225 -4 252 -50 310 -51 65 -130 94 -160
58z"/>
</g>
</svg>
